<svg width="24" height="18" viewBox="0 0 24 18" fill="none" xmlns="http://www.w3.org/2000/svg">
<g clip-path="url(#clip0_236_315)">
<path d="M3.68725 14.2273C3.59178 14.3176 3.47947 14.3881 3.35674 14.4349C3.23401 14.4817 3.10327 14.5039 2.97196 14.5002C2.84066 14.4965 2.71138 14.4669 2.59149 14.4133C2.47161 14.3596 2.36347 14.2828 2.27325 14.1873C2.18303 14.0919 2.1125 13.9796 2.06569 13.8568C2.01887 13.7341 1.99669 13.6034 2.0004 13.4721C2.00411 13.3408 2.03365 13.2115 2.08733 13.0916C2.14101 12.9717 2.21778 12.8636 2.31325 12.7733L11.3132 4.27334C11.4989 4.09781 11.7447 4 12.0002 4C12.2558 4 12.5016 4.09781 12.6872 4.27334L21.6882 12.7733C21.7858 12.863 21.8646 12.9711 21.92 13.0914C21.9754 13.2117 22.0064 13.3419 22.0111 13.4743C22.0158 13.6067 21.9942 13.7387 21.9474 13.8626C21.9007 13.9866 21.8298 14.1 21.7388 14.1963C21.6479 14.2927 21.5387 14.3699 21.4176 14.4237C21.2965 14.4775 21.166 14.5067 21.0335 14.5095C20.9011 14.5124 20.7694 14.489 20.6461 14.4405C20.5228 14.3921 20.4103 14.3196 20.3153 14.2273L12.0002 6.37534L3.68725 14.2273Z" fill="white"/>
</g>
<defs>
<clipPath id="clip0_236_315">
<rect width="18" height="24" fill="white" transform="matrix(0 1 1 0 0 0)"/>
</clipPath>
</defs>
</svg>
