<svg width="150" height="60" viewBox="0 0 150 60" fill="none" xmlns="http://www.w3.org/2000/svg">
<path d="M8.3891 0.499998H13.4891V23H8.3891V0.499998ZM26.3891 0.499998H31.4891V23H26.3891V0.499998ZM11.1791 9.38H28.6391V13.85H11.1791V9.38ZM48.8839 23.45C46.2639 23.45 43.9639 22.96 41.9839 21.98C40.0239 21 38.4939 19.64 37.3939 17.9C36.2939 16.14 35.7439 14.09 35.7439 11.75C35.7439 9.41 36.2939 7.37 37.3939 5.63C38.4939 3.87 40.0239 2.5 41.9839 1.52C43.9639 0.539999 46.2639 0.0499986 48.8839 0.0499986C51.5039 0.0499986 53.7939 0.539999 55.7539 1.52C57.7339 2.5 59.2739 3.87 60.3739 5.63C61.4739 7.37 62.0239 9.41 62.0239 11.75C62.0239 14.09 61.4739 16.14 60.3739 17.9C59.2739 19.64 57.7339 21 55.7539 21.98C53.7939 22.96 51.5039 23.45 48.8839 23.45ZM48.8839 18.92C50.5239 18.92 51.9339 18.63 53.1139 18.05C54.3139 17.47 55.2339 16.64 55.8739 15.56C56.5339 14.48 56.8639 13.21 56.8639 11.75C56.8639 10.29 56.5339 9.02 55.8739 7.94C55.2339 6.86 54.3139 6.03 53.1139 5.45C51.9339 4.87 50.5239 4.58 48.8839 4.58C47.2639 4.58 45.8539 4.87 44.6539 5.45C43.4539 6.03 42.5239 6.86 41.8639 7.94C41.2239 9.02 40.9039 10.29 40.9039 11.75C40.9039 13.21 41.2239 14.48 41.8639 15.56C42.5239 16.64 43.4539 17.47 44.6539 18.05C45.8539 18.63 47.2639 18.92 48.8839 18.92ZM80.4812 11.9L80.9612 10.88C82.7012 10.92 84.1412 11.2 85.2812 11.72C86.4212 12.22 87.2612 12.91 87.8012 13.79C88.3412 14.65 88.6112 15.64 88.6112 16.76C88.6112 17.96 88.3212 19.03 87.7412 19.97C87.1812 20.91 86.3512 21.65 85.2512 22.19C84.1512 22.73 82.7712 23 81.1112 23H65.3312L67.0712 11.45L65.3312 0.499998H80.5412C82.6212 0.499998 84.2312 0.989998 85.3712 1.97C86.5312 2.93 87.1112 4.26 87.1112 5.96C87.1112 6.88 86.8912 7.77 86.4512 8.63C86.0312 9.49 85.3312 10.22 84.3512 10.82C83.3912 11.4 82.1012 11.76 80.4812 11.9ZM70.3712 21.71L68.4212 19.25H80.0612C81.1412 19.25 81.9712 19 82.5512 18.5C83.1512 17.98 83.4512 17.26 83.4512 16.34C83.4512 15.4 83.1112 14.66 82.4312 14.12C81.7512 13.56 80.7512 13.28 79.4312 13.28H69.9512V9.62H78.8312C79.7312 9.62 80.4712 9.37 81.0512 8.87C81.6512 8.35 81.9512 7.63 81.9512 6.71C81.9512 6.01 81.7012 5.43 81.2012 4.97C80.7012 4.49 79.9812 4.25 79.0412 4.25H68.4212L70.3712 1.79L71.9612 11.45L70.3712 21.71ZM95.3643 18.26V14.12H110.964V18.26H95.3643ZM106.554 0.499998L117.084 23H111.654L102.444 2.57H104.124L94.9143 23H89.4843L100.014 0.499998H106.554ZM137.356 10.79V14.45H127.696L127.666 14.36C126.006 14.36 124.556 14.08 123.316 13.52C122.096 12.94 121.136 12.14 120.436 11.12C119.736 10.08 119.386 8.87 119.386 7.49C119.386 6.09 119.736 4.87 120.436 3.83C121.136 2.79 122.096 1.98 123.316 1.4C124.556 0.799999 126.006 0.499998 127.666 0.499998H140.866V23H135.766V1.91L138.046 4.22H128.326C127.146 4.22 126.216 4.51 125.536 5.09C124.856 5.67 124.516 6.47 124.516 7.49C124.516 8.51 124.856 9.32 125.536 9.92C126.216 10.5 127.146 10.79 128.326 10.79H137.356ZM133.006 12.47L124.816 23H118.876L127.216 12.47H133.006ZM0.112031 59L9.02203 44.72L12.682 47.96L5.90203 59H0.112031ZM35.692 59L28.972 47.96L32.602 44.72L41.512 59H35.692ZM23.302 54.29L21.892 53.78L35.752 36.5H41.182L22.672 59H18.952L0.442031 36.5H5.87203L19.732 53.78L18.292 54.29V36.5H23.302V54.29ZM44.5971 59V36.5H49.5771V56.42L48.0471 56.12L62.2671 36.5H68.8971V59H63.9171V38.81L65.4471 39.11L51.0471 59H44.5971ZM84.4031 59.45C82.0831 59.45 80.0631 59.13 78.3431 58.49C76.6231 57.83 75.2831 56.9 74.3231 55.7C73.3631 54.5 72.8331 53.09 72.7331 51.47H77.8331C78.0131 52.77 78.6531 53.77 79.7531 54.47C80.8731 55.15 82.4231 55.49 84.4031 55.49C86.2831 55.49 87.7331 55.22 88.7531 54.68C89.7931 54.12 90.3131 53.29 90.3131 52.19C90.3131 51.25 89.8731 50.56 88.9931 50.12C88.1331 49.66 86.7431 49.43 84.8231 49.43H80.5031V45.98H84.7331C85.8731 45.98 86.8131 45.86 87.5531 45.62C88.2931 45.38 88.8431 45.04 89.2031 44.6C89.5631 44.14 89.7431 43.63 89.7431 43.07C89.7431 42.41 89.5231 41.86 89.0831 41.42C88.6631 40.96 88.0531 40.61 87.2531 40.37C86.4731 40.13 85.5331 40.01 84.4331 40.01C82.6331 40.01 81.2031 40.35 80.1431 41.03C79.0831 41.69 78.4631 42.61 78.2831 43.79H73.2131C73.3331 42.35 73.8431 41.05 74.7431 39.89C75.6631 38.71 76.9631 37.78 78.6431 37.1C80.3231 36.4 82.3331 36.05 84.6731 36.05C86.7531 36.05 88.5531 36.32 90.0731 36.86C91.6131 37.38 92.8031 38.11 93.6431 39.05C94.5031 39.99 94.9331 41.08 94.9331 42.32C94.9331 43.34 94.6231 44.28 94.0031 45.14C93.4031 46 92.4631 46.68 91.1831 47.18C89.9231 47.68 88.2931 47.92 86.2931 47.9V47.33C88.2131 47.23 89.8531 47.37 91.2131 47.75C92.5931 48.13 93.6531 48.72 94.3931 49.52C95.1531 50.3 95.5331 51.31 95.5331 52.55C95.5331 53.91 95.0931 55.11 94.2131 56.15C93.3531 57.19 92.0931 58 90.4331 58.58C88.7731 59.16 86.7631 59.45 84.4031 59.45ZM99.8862 36.5H104.986V59H99.8862V36.5ZM117.886 36.5H122.986V59H117.886V36.5ZM102.676 45.38H120.136V49.85H102.676V45.38ZM128.351 59V36.5H133.451V57.23L131.141 54.95H140.261C141.441 54.95 142.371 54.65 143.051 54.05C143.751 53.43 144.101 52.6 144.101 51.56C144.101 50.52 143.751 49.7 143.051 49.1C142.371 48.48 141.441 48.17 140.261 48.17H130.691V44.12H140.531C142.331 44.12 143.881 44.43 145.181 45.05C146.481 45.67 147.481 46.54 148.181 47.66C148.901 48.78 149.261 50.08 149.261 51.56C149.261 53.04 148.901 54.34 148.181 55.46C147.481 56.58 146.481 57.45 145.181 58.07C143.881 58.69 142.331 59 140.531 59H128.351Z" fill="white"/>
</svg>
